<svg width="527" height="527" viewBox="0 0 527 527" fill="none" xmlns="http://www.w3.org/2000/svg">
<path d="M149.477 452.595C128.884 452.595 108.65 451.844 88.1767 452.745C78.5712 453.181 68.9958 453.631 59.3903 454.247C53.1971 454.638 46.5529 454.247 40.495 454.923C33.1143 455.809 23.4186 458.843 33.3548 462.057C39.2624 463.965 49.0182 463.95 55.6774 464.611C63.5843 465.392 71.2506 466.023 79.3379 466.368C102.382 467.314 125.306 467.404 148.485 467.404C175.363 467.404 201.909 467.84 228.726 468.155C271.793 468.651 314.409 468.486 357.356 467.194C376.01 466.623 401.174 466.428 419.829 465.692C435.237 465.121 444.241 464.521 459.664 464.025C468.666 463.758 477.642 462.931 486.541 461.547C495.17 459.925 479.987 457.146 474.756 455.959C468.127 454.457 443.61 452.956 443.61 452.956C443.61 452.956 406.12 452.099 380.791 452.114C344.173 452.114 307.585 450.447 270.906 450.447C270.846 450.372 191.763 452.55 149.477 452.595Z" fill="#F3E7E2"/>
<path d="M417.183 295.444L391.539 297.111C391.136 297.137 390.745 297.253 390.392 297.448C390.04 297.644 389.735 297.916 389.501 298.243C389.266 298.571 389.108 298.947 389.036 299.343C388.965 299.74 388.983 300.147 389.088 300.536L395.733 324.628C395.858 325.084 395.863 325.565 395.745 326.023C395.628 326.481 395.393 326.901 395.064 327.241C394.734 327.581 394.322 327.829 393.867 327.96C393.412 328.092 392.931 328.103 392.471 327.992L368.089 322.179C367.696 322.085 367.287 322.08 366.892 322.164C366.497 322.248 366.125 322.42 365.805 322.666C365.485 322.913 365.225 323.227 365.042 323.588C364.86 323.948 364.761 324.344 364.752 324.748L363.985 349.77C363.97 350.242 363.832 350.702 363.585 351.105C363.338 351.507 362.99 351.838 362.576 352.066C362.162 352.293 361.695 352.409 361.223 352.401C360.75 352.394 360.288 352.264 359.881 352.023L337.604 338.896C337.012 338.543 336.308 338.428 335.634 338.576C334.961 338.724 334.37 339.123 333.981 339.692L315.777 366.232C315.558 366.553 315.272 366.823 314.94 367.024C314.607 367.225 314.236 367.353 313.85 367.398C313.464 367.444 313.072 367.406 312.702 367.288C312.332 367.17 311.991 366.973 311.703 366.713L283.353 341.149C283.071 340.892 282.737 340.698 282.375 340.578C282.012 340.458 281.628 340.416 281.248 340.454C280.868 340.492 280.5 340.61 280.169 340.8C279.838 340.989 279.55 341.247 279.324 341.555L264.398 362.072C264.119 362.453 263.745 362.755 263.314 362.948C262.883 363.141 262.409 363.218 261.939 363.173C261.469 363.128 261.019 362.961 260.633 362.688C260.247 362.416 259.938 362.048 259.738 361.621L249.441 339.722C249.248 339.314 248.957 338.96 248.593 338.692C248.229 338.424 247.804 338.251 247.357 338.189C246.909 338.126 246.453 338.176 246.029 338.333C245.606 338.491 245.228 338.752 244.931 339.091L225.269 361.771C224.921 362.168 224.464 362.455 223.955 362.597C223.446 362.738 222.907 362.729 222.403 362.57C221.899 362.411 221.453 362.108 221.118 361.7C220.784 361.291 220.576 360.794 220.519 360.269L217.001 331.221C216.958 330.853 216.84 330.497 216.653 330.177C216.467 329.856 216.217 329.577 215.918 329.358C215.619 329.138 215.278 328.982 214.916 328.899C214.554 328.817 214.179 328.81 213.815 328.878L189.373 333.384C188.944 333.461 188.503 333.434 188.086 333.307C187.67 333.179 187.29 332.953 186.978 332.649C186.666 332.345 186.432 331.971 186.294 331.558C186.156 331.145 186.119 330.705 186.186 330.275L190.289 304.741C190.354 304.345 190.33 303.938 190.219 303.552C190.107 303.166 189.912 302.809 189.646 302.507C189.38 302.205 189.05 301.967 188.68 301.807C188.311 301.648 187.911 301.573 187.509 301.587L157.054 302.744C156.583 302.764 156.116 302.662 155.697 302.447C155.279 302.231 154.924 301.911 154.667 301.516C154.411 301.122 154.261 300.668 154.234 300.198C154.207 299.728 154.304 299.26 154.513 298.839L165.742 276.189C165.911 275.847 166.006 275.473 166.021 275.092C166.036 274.711 165.97 274.331 165.828 273.977C165.686 273.623 165.472 273.302 165.198 273.037C164.924 272.771 164.597 272.566 164.239 272.434L134.475 261.545C134.018 261.374 133.614 261.084 133.306 260.705C132.999 260.325 132.799 259.87 132.726 259.387C132.654 258.904 132.713 258.411 132.896 257.958C133.08 257.506 133.381 257.111 133.769 256.814L157.7 238.79C158.087 238.5 158.389 238.112 158.576 237.667C158.763 237.221 158.827 236.734 158.763 236.255C158.699 235.776 158.508 235.323 158.21 234.942C157.912 234.561 157.518 234.267 157.069 234.089L122.856 220.571C122.375 220.382 121.958 220.06 121.653 219.643C121.349 219.226 121.17 218.731 121.137 218.216C121.104 217.701 121.218 217.187 121.466 216.734C121.715 216.281 122.087 215.909 122.54 215.66L153.927 198.492C154.285 198.3 154.595 198.029 154.833 197.7C155.072 197.371 155.233 196.993 155.305 196.593C155.378 196.193 155.359 195.782 155.25 195.391C155.142 194.999 154.946 194.637 154.679 194.332L138.339 175.617C138.012 175.26 137.786 174.822 137.685 174.348C137.585 173.875 137.612 173.383 137.765 172.923C137.919 172.464 138.192 172.054 138.557 171.735C138.922 171.417 139.366 171.201 139.842 171.111L168.749 165.825C169.192 165.742 169.608 165.551 169.959 165.268C170.31 164.985 170.585 164.619 170.759 164.203C170.934 163.788 171.002 163.335 170.958 162.887C170.914 162.438 170.759 162.008 170.507 161.634L152.349 134.974C152.05 134.53 151.889 134.008 151.886 133.473C151.883 132.938 152.038 132.414 152.331 131.966C152.625 131.519 153.044 131.168 153.537 130.958C154.029 130.747 154.573 130.687 155.099 130.784L187.313 136.792C187.796 136.881 188.294 136.839 188.754 136.669C189.215 136.499 189.621 136.207 189.929 135.825C190.237 135.444 190.436 134.986 190.505 134.5C190.574 134.014 190.51 133.519 190.32 133.067L176.415 100.219C176.206 99.7256 176.147 99.1818 176.246 98.6555C176.345 98.1293 176.598 97.644 176.972 97.2606C177.346 96.8772 177.825 96.6127 178.349 96.5003C178.873 96.3879 179.419 96.4327 179.917 96.6289L215.483 110.597C215.882 110.755 216.314 110.816 216.741 110.774C217.169 110.733 217.58 110.59 217.941 110.358C218.303 110.126 218.603 109.812 218.819 109.441C219.035 109.07 219.159 108.653 219.181 108.224L220.865 78.7705C220.891 78.2986 221.041 77.8417 221.299 77.4451C221.556 77.0485 221.913 76.7259 222.333 76.509C222.753 76.2921 223.223 76.1886 223.696 76.2085C224.169 76.2285 224.628 76.3712 225.029 76.6227L259.888 98.5064C260.24 98.7246 260.637 98.8593 261.049 98.9C261.461 98.9408 261.877 98.8865 262.264 98.7414C262.652 98.5963 263.001 98.3643 263.285 98.0631C263.569 97.762 263.78 97.3998 263.901 97.0044L276.047 60.8671C276.212 60.3628 276.521 59.9179 276.936 59.5877C277.351 59.2576 277.855 59.0568 278.383 59.0104C278.912 58.964 279.443 59.0739 279.91 59.3266C280.376 59.5793 280.758 59.9636 281.008 60.4315L300.144 95.5475C300.333 95.8999 300.598 96.206 300.919 96.4438C301.241 96.6816 301.611 96.8452 302.004 96.9227C302.396 97.0003 302.801 96.9899 303.189 96.8924C303.577 96.7948 303.938 96.6125 304.247 96.3586L326.36 78.3049C326.737 77.9936 327.192 77.7899 327.676 77.7153C328.16 77.6407 328.655 77.6979 329.109 77.8809C329.563 78.0639 329.959 78.3659 330.256 78.7551C330.552 79.1443 330.738 79.6063 330.794 80.0923L333.8 107.278C333.855 107.755 334.034 108.208 334.32 108.593C334.607 108.978 334.99 109.281 335.431 109.47C335.872 109.659 336.356 109.728 336.832 109.67C337.309 109.612 337.762 109.43 338.145 109.14L364.947 88.6535C365.329 88.3606 365.782 88.1743 366.259 88.1136C366.737 88.0528 367.222 88.1198 367.665 88.3076C368.109 88.4955 368.494 88.7975 368.782 89.1828C369.071 89.5681 369.251 90.023 369.306 90.5009L373.5 126.939C373.579 127.615 373.907 128.239 374.422 128.686C374.936 129.133 375.599 129.373 376.281 129.357L402.076 128.561C402.518 128.544 402.958 128.635 403.357 128.826C403.756 129.017 404.102 129.303 404.366 129.658C404.629 130.013 404.802 130.427 404.869 130.864C404.937 131.301 404.896 131.748 404.752 132.165L397.476 151.06C397.326 151.452 397.268 151.873 397.308 152.29C397.348 152.708 397.483 153.11 397.705 153.467C397.926 153.823 398.227 154.123 398.583 154.344C398.94 154.565 399.343 154.701 399.761 154.74L428.983 157.399C429.485 157.442 429.965 157.625 430.368 157.926C430.772 158.227 431.083 158.634 431.268 159.102C431.452 159.571 431.502 160.081 431.412 160.576C431.321 161.071 431.095 161.531 430.757 161.904L413.14 181.595C412.813 181.943 412.584 182.372 412.476 182.836C412.367 183.301 412.383 183.786 412.522 184.243C412.66 184.699 412.917 185.112 413.266 185.438C413.614 185.764 414.042 185.993 414.508 186.101L435.102 191.283C435.595 191.408 436.043 191.669 436.395 192.035C436.747 192.402 436.99 192.86 437.095 193.357C437.199 193.855 437.163 194.372 436.988 194.849C436.814 195.327 436.509 195.746 436.109 196.059L416.838 211.079C416.538 211.312 416.291 211.605 416.112 211.939C415.934 212.274 415.828 212.642 415.801 213.02C415.774 213.399 415.827 213.778 415.956 214.135C416.086 214.491 416.289 214.816 416.552 215.089L441.896 241.704C442.223 242.043 442.456 242.461 442.573 242.918C442.689 243.374 442.685 243.853 442.561 244.307C442.437 244.761 442.197 245.175 441.864 245.509C441.531 245.842 441.118 246.084 440.663 246.21L406.511 255.867C406.132 255.975 405.782 256.162 405.483 256.418C405.184 256.673 404.945 256.99 404.78 257.347C404.616 257.704 404.531 258.092 404.531 258.485C404.532 258.878 404.617 259.266 404.782 259.622L419.483 291.584C419.666 291.986 419.749 292.426 419.725 292.867C419.701 293.308 419.57 293.736 419.344 294.116C419.118 294.495 418.804 294.814 418.427 295.045C418.051 295.277 417.624 295.414 417.183 295.444Z" fill="#FEDD28"/>
<path d="M251.079 217.988C244.595 217.979 238.248 216.122 232.784 212.634C227.32 209.146 222.966 204.172 220.233 198.297C220.023 197.782 220.02 197.206 220.223 196.689C220.427 196.171 220.822 195.752 221.327 195.518C221.832 195.284 222.408 195.254 222.935 195.433C223.462 195.612 223.899 195.987 224.157 196.48C226.167 200.815 229.197 204.601 232.989 207.514C236.78 210.427 241.22 212.38 245.93 213.208C250.64 214.036 255.481 213.713 260.039 212.267C264.598 210.822 268.739 208.296 272.109 204.906C272.526 204.623 273.028 204.495 273.529 204.543C274.03 204.59 274.499 204.811 274.854 205.166C275.21 205.522 275.431 205.99 275.479 206.491C275.526 206.992 275.398 207.493 275.115 207.91C271.97 211.087 268.227 213.613 264.103 215.343C259.978 217.072 255.552 217.971 251.079 217.988Z" fill="#401009"/>
<path d="M238.422 193.19C238.095 193.192 237.773 193.116 237.48 192.97C237.188 192.824 236.934 192.611 236.739 192.349C233.656 188.677 229.415 186.162 224.713 185.215C222.593 184.728 220.396 184.678 218.256 185.068C216.116 185.458 214.078 186.28 212.266 187.483C211.828 187.83 211.27 187.988 210.714 187.923C210.159 187.858 209.652 187.576 209.305 187.138C208.958 186.699 208.8 186.141 208.865 185.587C208.93 185.032 209.212 184.525 209.651 184.179C211.941 182.604 214.53 181.517 217.259 180.985C219.987 180.453 222.795 180.487 225.51 181.085C231.255 182.206 236.425 185.305 240.121 189.841C240.295 190.066 240.421 190.323 240.493 190.598C240.564 190.872 240.579 191.159 240.537 191.439C240.495 191.72 240.396 191.989 240.247 192.231C240.098 192.472 239.902 192.681 239.67 192.845C239.3 193.086 238.864 193.207 238.422 193.19Z" fill="#401009"/>
<path d="M287.968 202.683C287.64 202.681 287.317 202.603 287.024 202.454C286.732 202.306 286.479 202.091 286.284 201.827C283.198 198.161 278.958 195.651 274.259 194.707C272.138 194.221 269.941 194.171 267.801 194.561C265.662 194.951 263.624 195.772 261.812 196.975C261.373 197.322 260.815 197.48 260.26 197.415C259.704 197.351 259.198 197.068 258.851 196.63C258.504 196.192 258.345 195.634 258.41 195.079C258.475 194.524 258.758 194.018 259.196 193.671C261.486 192.097 264.076 191.01 266.804 190.478C269.532 189.945 272.341 189.979 275.055 190.577C280.803 191.691 285.976 194.791 289.666 199.334C289.84 199.558 289.967 199.815 290.038 200.09C290.11 200.365 290.125 200.651 290.083 200.932C290.041 201.212 289.942 201.482 289.793 201.723C289.644 201.965 289.447 202.174 289.215 202.337C288.845 202.579 288.409 202.7 287.968 202.683Z" fill="#401009"/>
<path d="M368.675 291.419C364.967 291.419 361.343 290.321 358.261 288.263C355.178 286.205 352.776 283.279 351.357 279.857C349.938 276.435 349.567 272.669 350.29 269.036C351.013 265.402 352.799 262.065 355.42 259.446C358.042 256.826 361.382 255.043 365.018 254.32C368.654 253.597 372.423 253.968 375.848 255.386C379.274 256.803 382.201 259.204 384.261 262.284C386.321 265.364 387.42 268.985 387.42 272.69C387.412 277.654 385.434 282.414 381.921 285.925C378.407 289.435 373.644 291.411 368.675 291.419ZM368.675 260.674C366.296 260.674 363.971 261.378 361.994 262.699C360.016 264.019 358.475 265.896 357.565 268.091C356.654 270.287 356.416 272.703 356.88 275.034C357.344 277.365 358.49 279.505 360.171 281.186C361.853 282.866 363.996 284.011 366.329 284.474C368.662 284.938 371.08 284.7 373.277 283.791C375.474 282.881 377.352 281.341 378.674 279.365C379.995 277.389 380.701 275.066 380.701 272.69C380.701 269.503 379.434 266.446 377.178 264.193C374.923 261.94 371.864 260.674 368.675 260.674Z" fill="#FC4A2F"/>
<path d="M271.057 313.678C269.858 313.676 268.678 313.388 267.614 312.837C262.564 310.209 260.895 304.892 259.557 300.626C259.218 299.464 258.817 298.321 258.355 297.202C255.071 290.4 250.829 284.102 245.758 278.502C237.956 270.091 224.983 261.365 211.89 262.071C210.842 262.258 209.766 262.221 208.734 261.962C207.701 261.703 206.735 261.227 205.901 260.567C205.066 259.907 204.381 259.077 203.891 258.132C203.402 257.187 203.118 256.15 203.06 255.087C203.003 254.025 203.171 252.963 203.555 251.97C203.939 250.978 204.53 250.079 205.288 249.332C206.046 248.585 206.954 248.007 207.953 247.637C208.951 247.267 210.016 247.114 211.079 247.186C226.547 246.36 243.608 254.261 256.701 268.364C262.832 275.099 267.951 282.688 271.898 290.894C272.642 292.598 273.275 294.349 273.792 296.135C274.173 297.447 274.64 298.731 275.19 299.981C276.491 300.887 277.471 302.181 277.991 303.677C278.511 305.174 278.544 306.796 278.086 308.313C277.627 309.829 276.7 311.162 275.438 312.12C274.175 313.079 272.642 313.614 271.057 313.648V313.678Z" fill="#FFBE00"/>
<path d="M342.279 254.426C342.038 254.428 341.798 254.388 341.572 254.305C341.284 254.222 341.016 254.081 340.784 253.892C340.552 253.702 340.36 253.468 340.22 253.204C340.079 252.939 339.994 252.649 339.968 252.35C339.942 252.052 339.976 251.752 340.069 251.467C341.271 247.787 340.76 246.751 339.017 243.326C338.791 242.86 338.536 242.365 338.265 241.824C336.191 237.604 336.596 233.143 339.498 228.156C339.802 227.644 340.295 227.271 340.872 227.119C341.449 226.968 342.062 227.049 342.579 227.345C342.836 227.493 343.061 227.69 343.241 227.925C343.422 228.16 343.553 228.429 343.629 228.715C343.704 229.002 343.722 229.3 343.681 229.594C343.64 229.887 343.542 230.169 343.391 230.424C341.226 234.149 340.911 236.958 342.309 239.842C342.579 240.352 342.82 240.848 343.045 241.343C344.909 245.023 346.142 247.456 344.353 252.924C344.199 253.354 343.918 253.727 343.548 253.995C343.178 254.263 342.735 254.413 342.279 254.426Z" fill="white"/>
<path d="M352.636 254.44C352.396 254.442 352.158 254.407 351.929 254.335C351.644 254.248 351.378 254.105 351.148 253.915C350.918 253.725 350.728 253.491 350.588 253.228C350.448 252.964 350.362 252.675 350.334 252.378C350.307 252.081 350.338 251.782 350.426 251.497C351.644 247.802 351.117 246.765 349.389 243.356C349.148 242.89 348.908 242.38 348.637 241.854C346.563 237.648 346.969 233.173 349.87 228.201C350.182 227.708 350.673 227.355 351.241 227.217C351.808 227.079 352.407 227.165 352.911 227.459C353.415 227.753 353.786 228.231 353.945 228.792C354.104 229.354 354.039 229.955 353.763 230.469C351.598 234.194 351.268 237.003 352.681 239.871C352.936 240.397 353.177 240.878 353.417 241.373C355.281 245.053 356.514 247.501 354.71 252.954C354.557 253.383 354.276 253.756 353.906 254.021C353.535 254.287 353.092 254.433 352.636 254.44Z" fill="white"/>
<path d="M184.322 296.09H70.5141C68.99 296.088 67.5145 295.554 66.3425 294.58C65.1705 293.607 64.3757 292.255 64.0954 290.758L51.9796 226.068C51.8053 225.125 51.8409 224.156 52.0837 223.228C52.3266 222.301 52.7708 221.438 53.3848 220.701C53.9989 219.964 54.7677 219.371 55.6367 218.965C56.5058 218.558 57.4537 218.348 58.4133 218.348H172.206C173.731 218.346 175.208 218.876 176.383 219.847C177.557 220.818 178.356 222.168 178.64 223.665L190.665 288.355C190.841 289.291 190.809 290.255 190.573 291.178C190.336 292.101 189.9 292.961 189.296 293.698C188.691 294.435 187.933 295.031 187.074 295.444C186.215 295.857 185.275 296.078 184.322 296.09Z" fill="#3553FF"/>
<path d="M237.595 295.61H81.9836C80.7876 295.61 79.6405 295.135 78.7948 294.29C77.9491 293.445 77.474 292.299 77.474 291.104C77.474 289.909 77.9491 288.763 78.7948 287.918C79.6405 287.073 80.7876 286.598 81.9836 286.598H237.595C238.791 286.598 239.939 287.073 240.784 287.918C241.63 288.763 242.105 289.909 242.105 291.104C242.105 292.299 241.63 293.445 240.784 294.29C239.939 295.135 238.791 295.61 237.595 295.61Z" fill="#3553FF"/>
<path d="M118.226 267.012C123.157 267.012 127.155 263.018 127.155 258.09C127.155 253.163 123.157 249.169 118.226 249.169C113.294 249.169 109.297 253.163 109.297 258.09C109.297 263.018 113.294 267.012 118.226 267.012Z" fill="white"/>
<path d="M497.59 360.84V310.389C497.59 308.537 497.225 306.704 496.515 304.994C495.806 303.284 494.766 301.73 493.455 300.421C492.144 299.113 490.588 298.076 488.875 297.368C487.163 296.661 485.328 296.298 483.475 296.3H31.1151C27.3741 296.3 23.7862 297.784 21.1395 300.426C18.4929 303.067 17.004 306.651 17 310.389V362.507H17.6915V364.369C17.736 367.36 18.4712 370.299 19.8396 372.959C21.208 375.619 23.1728 377.927 25.5806 379.703C27.9885 381.48 30.7744 382.677 33.7213 383.201C36.6681 383.724 39.6962 383.561 42.5695 382.723L47.6955 381.221C52.3228 379.479 57.1186 378.22 62.006 377.467V448.57C61.9491 450.168 62.2152 451.762 62.7883 453.256C63.3613 454.75 64.2297 456.113 65.3415 457.264C66.4534 458.415 67.7859 459.33 69.2595 459.956C70.7332 460.581 72.3178 460.903 73.9189 460.903C75.5199 460.903 77.1045 460.581 78.5782 459.956C80.0519 459.33 81.3844 458.415 82.4962 457.264C83.608 456.113 84.4764 454.75 85.0495 453.256C85.6226 451.762 85.8886 450.168 85.8318 448.57V377.752C89.1362 378.35 92.3957 379.173 95.5876 380.215C110.197 385.003 125.954 385.003 140.563 380.215L142.217 379.674C156.826 374.887 172.584 374.887 187.193 379.674L188.831 380.215C203.44 385.003 219.198 385.003 233.807 380.215L235.446 379.674C250.055 374.887 265.813 374.887 280.422 379.674L282.075 380.215C296.684 385.003 312.442 385.003 327.051 380.215L328.69 379.674C343.299 374.887 359.056 374.887 373.666 379.674L375.304 380.215C389.913 385.003 405.671 385.003 420.28 380.215C422.84 379.379 425.444 378.687 428.082 378.142V448.585C428.082 450.149 428.39 451.698 428.989 453.143C429.588 454.588 430.466 455.901 431.573 457.007C432.68 458.113 433.994 458.99 435.44 459.589C436.887 460.187 438.437 460.495 440.002 460.495C443.161 460.491 446.189 459.235 448.421 457.001C450.654 454.768 451.907 451.741 451.907 448.585V377.196C457.472 377.902 462.935 379.253 468.187 381.221L469.224 381.522C472.343 382.404 475.617 382.595 478.817 382.082C482.018 381.57 485.068 380.365 487.754 378.553C490.441 376.741 492.699 374.365 494.372 371.591C496.045 368.817 497.092 365.712 497.44 362.492H497.56L497.59 360.84Z" fill="#ECDDD6"/>
<path d="M366.599 245.895H324.572C322.363 245.895 320.572 247.685 320.572 249.895V294.058C320.572 296.267 322.363 298.058 324.572 298.058H366.599C368.808 298.058 370.599 296.267 370.599 294.058V249.895C370.599 247.685 368.808 245.895 366.599 245.895Z" fill="#FC4A2F"/>
</svg>
